<svg width="66" height="66" viewBox="0 0 66 66" fill="none" xmlns="http://www.w3.org/2000/svg">
<rect x="5" y="5" width="56" height="56" rx="28" fill="#FEE4E2"/>
<rect x="5" y="5" width="56" height="56" rx="28" stroke="#FEF3F2" stroke-width="10"/>
<g clip-path="url(#clip0_4_19)">
<path d="M27.9131 39.2849C27.5984 39.2849 27.284 39.1647 27.0436 38.9247C26.5636 38.4446 26.5636 37.6661 27.0436 37.1864L37.186 27.044C37.6658 26.5639 38.4449 26.5639 38.9243 27.044C39.4047 27.5244 39.4047 28.3026 38.9243 28.7827L28.782 38.925C28.5423 39.1647 28.2278 39.2849 27.9131 39.2849Z" fill="#EF4747"/>
<path d="M38.0555 39.2849C37.7411 39.2849 37.426 39.1647 37.1863 38.9247L27.044 28.7824C26.5639 28.302 26.5639 27.5238 27.044 27.0437C27.5243 26.5636 28.3025 26.5636 28.7826 27.0437L38.9249 37.1861C39.4053 37.6661 39.4053 38.4446 38.9249 38.9244C38.6849 39.1647 38.3699 39.2849 38.0555 39.2849Z" fill="#EF4747"/>
<path d="M32.9843 46.8148C25.3582 46.8148 19.1538 40.6105 19.1538 32.9843C19.1538 25.3582 25.3582 19.1539 32.9843 19.1539C40.6104 19.1539 46.8148 25.3582 46.8148 32.9843C46.8148 40.6105 40.6104 46.8148 32.9843 46.8148ZM32.9843 21.6126C26.7139 21.6126 21.6126 26.7139 21.6126 32.9843C21.6126 39.2548 26.7139 44.3561 32.9843 44.3561C39.2547 44.3561 44.356 39.2548 44.356 32.9843C44.356 26.7139 39.2547 21.6126 32.9843 21.6126Z" fill="#EF4747"/>
</g>
<defs>
<clipPath id="clip0_4_19">
<rect width="28" height="28" fill="white" transform="translate(19 19)"/>
</clipPath>
</defs>
</svg>
