<svg width="66" height="66" viewBox="0 0 66 66" fill="none" xmlns="http://www.w3.org/2000/svg">
<rect x="5" y="5" width="56" height="56" rx="28" fill="#EEDAFF"/>
<rect x="5" y="5" width="56" height="56" rx="28" stroke="#F6F2FE" stroke-width="10"/>
<path d="M29.4422 43.0883C26.2018 42.3282 23.6718 39.7982 22.9117 36.5578C22.3628 34.2177 22.3628 31.7823 22.9117 29.4422C23.6718 26.2018 26.2018 23.6718 29.4422 22.9117C31.7823 22.3628 34.2177 22.3628 36.5578 22.9117C39.7982 23.6718 42.3282 26.2018 43.0883 29.4422C43.6372 31.7823 43.6372 34.2177 43.0883 36.5578C42.3282 39.7982 39.7982 42.3282 36.5578 43.0883C34.2177 43.6372 31.7823 43.6372 29.4422 43.0883Z" stroke="#A178DA" stroke-width="1.5"/>
<circle cx="33" cy="37.0834" r="1.16667" fill="#A178DA"/>
<path d="M30.6666 30.6667V30.0833C30.6666 28.7947 31.7113 27.75 33 27.75V27.75V27.75C34.2886 27.75 35.3333 28.7947 35.3333 30.0833V30.2249C35.3333 30.8813 35.0725 31.5107 34.6084 31.9749L33 33.5833" stroke="#A178DA" stroke-width="1.5" stroke-linecap="round" stroke-linejoin="round"/>
</svg>
