<svg width="66" height="66" viewBox="0 0 66 66" fill="none" xmlns="http://www.w3.org/2000/svg">
<rect x="5" y="5" width="56" height="56" rx="28" fill="#FEFFDA"/>
<rect x="5" y="5" width="56" height="56" rx="28" stroke="#FCFEF2" stroke-width="10"/>
<path d="M33 36.2083C32.5217 36.2083 32.125 35.8117 32.125 35.3333V29.5C32.125 29.0217 32.5217 28.625 33 28.625C33.4783 28.625 33.875 29.0217 33.875 29.5V35.3333C33.875 35.8117 33.4783 36.2083 33 36.2083Z" fill="#FFDE58"/>
<path d="M33 40C32.93 40 32.8483 39.9883 32.7666 39.9767C32.6966 39.965 32.6266 39.9417 32.5566 39.9067C32.4866 39.8833 32.4166 39.8483 32.3466 39.8017C32.2883 39.755 32.23 39.7083 32.1716 39.6617C31.9616 39.44 31.8333 39.1367 31.8333 38.8333C31.8333 38.53 31.9616 38.2267 32.1716 38.005C32.23 37.9583 32.2883 37.9117 32.3466 37.865C32.4166 37.8183 32.4866 37.7833 32.5566 37.76C32.6266 37.725 32.6966 37.7017 32.7666 37.69C32.9183 37.655 33.0816 37.655 33.2216 37.69C33.3033 37.7017 33.3733 37.725 33.4433 37.76C33.5133 37.7833 33.5833 37.8183 33.6533 37.865C33.7116 37.9117 33.77 37.9583 33.8283 38.005C34.0383 38.2267 34.1666 38.53 34.1666 38.8333C34.1666 39.1367 34.0383 39.44 33.8283 39.6617C33.77 39.7083 33.7116 39.755 33.6533 39.8017C33.5833 39.8483 33.5133 39.8833 33.4433 39.9067C33.3733 39.9417 33.3033 39.965 33.2216 39.9767C33.1516 39.9883 33.07 40 33 40Z" fill="#FFDE58"/>
<path d="M40.07 44.8533H25.93C23.655 44.8533 21.9166 44.025 21.03 42.5317C20.155 41.0383 20.2716 39.1133 21.38 37.1183L28.45 24.4017C29.6166 22.3017 31.2266 21.1467 33 21.1467C34.7733 21.1467 36.3833 22.3017 37.55 24.4017L44.62 37.13C45.7283 39.125 45.8566 41.0383 44.97 42.5433C44.0833 44.025 42.345 44.8533 40.07 44.8533ZM33 22.8967C31.9033 22.8967 30.83 23.7367 29.9783 25.2533L22.92 37.9817C22.1266 39.405 21.9983 40.7117 22.5466 41.6567C23.095 42.6017 24.3083 43.115 25.9416 43.115H40.0816C41.715 43.115 42.9166 42.6017 43.4766 41.6567C44.0366 40.7117 43.8966 39.4167 43.1033 37.9817L36.0216 25.2533C35.17 23.7367 34.0966 22.8967 33 22.8967Z" fill="#FFDE58"/>
</svg>
