<svg width="66" height="66" viewBox="0 0 66 66" fill="none" xmlns="http://www.w3.org/2000/svg">
<rect x="5" y="5" width="56" height="56" rx="28" fill="#DAF3FF"/>
<rect x="5" y="5" width="56" height="56" rx="28" stroke="#F2FCFE" stroke-width="10"/>
<path d="M33 45.5416C26.0817 45.5416 20.4583 39.9183 20.4583 33C20.4583 26.0816 26.0817 20.4583 33 20.4583C39.9183 20.4583 45.5417 26.0816 45.5417 33C45.5417 39.9183 39.9183 45.5416 33 45.5416ZM33 22.2083C27.05 22.2083 22.2083 27.05 22.2083 33C22.2083 38.95 27.05 43.7916 33 43.7916C38.95 43.7916 43.7917 38.95 43.7917 33C43.7917 27.05 38.95 22.2083 33 22.2083Z" fill="#5E80FA"/>
<path d="M33 35.0416C32.5217 35.0416 32.125 34.645 32.125 34.1666V28.3333C32.125 27.855 32.5217 27.4583 33 27.4583C33.4783 27.4583 33.875 27.855 33.875 28.3333V34.1666C33.875 34.645 33.4783 35.0416 33 35.0416Z" fill="#5E80FA"/>
<path d="M33 38.8334C32.8483 38.8334 32.6967 38.7984 32.5567 38.74C32.4167 38.6817 32.2883 38.6 32.1717 38.495C32.0667 38.3784 31.985 38.2617 31.9267 38.11C31.8683 37.97 31.8333 37.8184 31.8333 37.6667C31.8333 37.515 31.8683 37.3634 31.9267 37.2234C31.985 37.0834 32.0667 36.955 32.1717 36.8384C32.2883 36.7334 32.4167 36.6517 32.5567 36.5934C32.8367 36.4767 33.1633 36.4767 33.4433 36.5934C33.5833 36.6517 33.7117 36.7334 33.8283 36.8384C33.9333 36.955 34.015 37.0834 34.0733 37.2234C34.1317 37.3634 34.1667 37.515 34.1667 37.6667C34.1667 37.8184 34.1317 37.97 34.0733 38.11C34.015 38.2617 33.9333 38.3784 33.8283 38.495C33.7117 38.6 33.5833 38.6817 33.4433 38.74C33.3033 38.7984 33.1517 38.8334 33 38.8334Z" fill="#5E80FA"/>
</svg>
