<svg width="66" height="66" viewBox="0 0 66 66" fill="none" xmlns="http://www.w3.org/2000/svg">
<rect x="5" y="5" width="56" height="56" rx="28" fill="#DFFFDA"/>
<rect x="5" y="5" width="56" height="56" rx="28" stroke="#F2FEF3" stroke-width="10"/>
<path d="M33 45.0416C26.0817 45.0416 20.4583 39.4183 20.4583 32.5C20.4583 25.5816 26.0817 19.9583 33 19.9583C39.9183 19.9583 45.5417 25.5816 45.5417 32.5C45.5417 39.4183 39.9183 45.0416 33 45.0416ZM33 21.7083C27.05 21.7083 22.2083 26.55 22.2083 32.5C22.2083 38.45 27.05 43.2916 33 43.2916C38.95 43.2916 43.7917 38.45 43.7917 32.5C43.7917 26.55 38.95 21.7083 33 21.7083Z" fill="#66FA5E"/>
<path d="M31.3433 36.6767C31.11 36.6767 30.8883 36.5833 30.725 36.42L27.4233 33.1183C27.085 32.78 27.085 32.22 27.4233 31.8817C27.7617 31.5433 28.3217 31.5433 28.66 31.8817L31.3433 34.565L37.34 28.5683C37.6783 28.23 38.2383 28.23 38.5767 28.5683C38.915 28.9067 38.915 29.4667 38.5767 29.805L31.9617 36.42C31.7983 36.5833 31.5767 36.6767 31.3433 36.6767Z" fill="#66FA5E"/>
</svg>
